<svg xmlns="http://www.w3.org/2000/svg" width="740.8098754882812" height="621.05419921875" viewBox="-294.5084533691406 -99.12105560302734 740.8098754882812 621.05419921875"><title>Neo4j Graph Visualization</title><desc>Created using Neo4j (http://www.neo4j.com/)</desc><g class="layer relationships"><g class="relationship" transform="translate(9.096044190216091 378.3531781930849) rotate(315.99065242756274)"><path class="outline" fill="#A5ABB6" stroke="none" d="M 50 0.5 L 150.60769608096172 0.5 L 150.60769608096172 -0.5 L 50 -0.5 Z M 193.60769608096172 0.5 L 294.21539216192343 0.5 L 294.21539216192343 3.5 L 301.21539216192343 0 L 294.21539216192343 -3.5 L 294.21539216192343 -0.5 L 193.60769608096172 -0.5 Z"/><text text-anchor="middle" pointer-events="none" font-size="10px" fill="#000000" x="172.10769608096172" y="4" font-family="sans-serif">TRAINS</text></g><g class="relationship" transform="translate(9.096044190216091 378.3531781930849) rotate(186.5226984312426)"><path class="outline" fill="#A5ABB6" stroke="none" d="M 50 0.5 L 50.3301811527473 0.5 L 50.3301811527473 -0.5 L 50 -0.5 Z M 86.3301811527473 0.5 L 86.6603623054946 0.5 L 86.6603623054946 3.5 L 93.6603623054946 0 L 86.6603623054946 -3.5 L 86.6603623054946 -0.5 L 86.3301811527473 -0.5 Z"/><text text-anchor="middle" pointer-events="none" font-size="10px" fill="#000000" x="68.3301811527473" y="4" transform="rotate(180 68.3301811527473 0)" font-family="sans-serif">TRA…</text></g><g class="relationship" transform="translate(232.33331954198218 255.2396556478895) rotate(283.6522608377245)"><path class="outline" fill="#A5ABB6" stroke="none" d="M 50 0.5 L 58.70884330061686 0.5 L 58.70884330061686 -0.5 L 50 -0.5 Z M 58.70884330061686 0.5 L 67.41768660123373 0.5 L 67.41768660123373 3.5 L 74.41768660123373 0 L 67.41768660123373 -3.5 L 67.41768660123373 -0.5 L 58.70884330061686 -0.5 Z"/><text text-anchor="middle" pointer-events="none" font-size="10px" fill="#000000" x="58.70884330061686" y="4" font-family="sans-serif"/></g><g class="relationship" transform="translate(54.75655300465209 94.7899029488712) rotate(370.8189342398531)"><path class="outline" fill="#A5ABB6" stroke="none" d="M 50 0.5 L 84.34390626235421 0.5 L 84.34390626235421 -0.5 L 50 -0.5 Z M 119.34390626235421 0.5 L 153.68781252470842 0.5 L 153.68781252470842 3.5 L 160.68781252470842 0 L 153.68781252470842 -3.5 L 153.68781252470842 -0.5 L 119.34390626235421 -0.5 Z"/><text text-anchor="middle" pointer-events="none" font-size="10px" fill="#000000" x="101.84390626235421" y="4" font-family="sans-serif">KILLS</text></g><g class="relationship" transform="translate(261.69944742386735 134.33725173288215) rotate(218.74884556841567)"><path class="outline" fill="#A5ABB6" stroke="none" d="M 50 0.5 L 104.19775876974299 0.5 L 104.19775876974299 -0.5 L 50 -0.5 Z M 147.197758769743 0.5 L 201.39551753948598 0.5 L 201.39551753948598 3.5 L 208.39551753948598 0 L 201.39551753948598 -3.5 L 201.39551753948598 -0.5 L 147.197758769743 -0.5 Z"/><text text-anchor="middle" pointer-events="none" font-size="10px" fill="#000000" x="125.69775876974299" y="4" transform="rotate(180 125.69775876974299 0)" font-family="sans-serif">TRAINS</text></g><g class="relationship" transform="translate(-91.97719868276289 172.05004199420245) rotate(307.3397351227244)"><path class="outline" fill="#A5ABB6" stroke="none" d="M 50 0.5 L 104.42845670202723 0.5 L 104.42845670202723 -0.5 L 50 -0.5 Z M 139.42845670202723 0.5 L 193.85691340405447 0.5 L 193.85691340405447 3.5 L 200.85691340405447 0 L 193.85691340405447 -3.5 L 193.85691340405447 -0.5 L 139.42845670202723 -0.5 Z"/><text text-anchor="middle" pointer-events="none" font-size="10px" fill="#000000" x="121.92845670202723" y="4" font-family="sans-serif">KILLS</text></g><g class="relationship" transform="translate(60.17753407944192 -27.394507444159792) rotate(526.2971492249856)"><path class="outline" fill="#A5ABB6" stroke="none" d="M 50 0.5 L 79.797561717828 0.5 L 79.797561717828 -0.5 L 50 -0.5 Z M 122.797561717828 0.5 L 152.595123435656 0.5 L 152.595123435656 3.5 L 159.595123435656 0 L 152.595123435656 -3.5 L 152.595123435656 -0.5 L 122.797561717828 -0.5 Z"/><text text-anchor="middle" pointer-events="none" font-size="10px" fill="#000000" x="101.297561717828" y="4" transform="rotate(180 101.297561717828 0)" font-family="sans-serif">TRAINS</text></g><g class="relationship" transform="translate(-143.45195353365543 22.255744744880587) rotate(431.0354195907363)"><path class="outline" fill="#A5ABB6" stroke="none" d="M 50 0.5 L 58.195930885648536 0.5 L 58.195930885648536 -0.5 L 50 -0.5 Z M 93.19593088564854 0.5 L 101.39186177129707 0.5 L 101.39186177129707 3.5 L 108.39186177129707 0 L 101.39186177129707 -3.5 L 101.39186177129707 -0.5 L 93.19593088564854 -0.5 Z"/><text text-anchor="middle" pointer-events="none" font-size="10px" fill="#000000" x="75.69593088564854" y="4" font-family="sans-serif">KILLS</text></g><g class="relationship" transform="translate(54.75655300465209 94.7899029488712) rotate(200.10003698093942)"><path class="outline" fill="#A5ABB6" stroke="none" d="M 48.16688179190215,13.423915168270572 L 48.425700837004676,12.457989341981502 A 213.78534892206943 213.78534892206943 0 0 0 84.54611179483355,18.877609604597154 L 84.45624918729774,19.873563776116555 A 214.78534892206943 214.78534892206943 0 0 1 48.16688179190215,13.423915168270572 Z M 119.49772094846125,20.165016993010767 L 119.42443708470829,19.16770587038482 A 213.78534892206943 213.78534892206943 0 0 0 155.64663230300863,13.349786513263458 L 154.91848308423315,10.439494652436332 L 162.55867151473453,12.135820312925128 L 156.61749792804264,17.23017566103296 L 155.88934870926715,14.319883800205835 A 214.78534892206943 214.78534892206943 0 0 1 119.49772094846125,20.165016993010767"/><text text-anchor="middle" pointer-events="none" font-size="10px" fill="#000000" x="101.97518979100134" y="24.235136840812743" transform="rotate(180 101.97518979100134 20.235136840812743)" font-family="sans-serif">KILLS</text></g><g class="relationship" transform="translate(-143.45195353365543 22.255744744880587) rotate(380.1000369809394)"><path class="outline" fill="#A5ABB6" stroke="none" d="M 48.16688179190215,13.423915168270572 L 48.425700837004676,12.457989341981502 A 213.78534892206943 213.78534892206943 0 0 0 80.57516846142688,18.48192420294606 L 80.4667314129697,19.47602752077671 A 214.78534892206943 214.78534892206943 0 0 1 48.16688179190215,13.423915168270572 Z M 123.49329924317527,19.833895811569505 L 123.40141272186318,18.83812632659763 A 213.78534892206943 213.78534892206943 0 0 0 155.64663230300863,13.349786513263458 L 154.91848308423315,10.439494652436332 L 162.55867151473453,12.135820312925128 L 156.61749792804264,17.23017566103296 L 155.88934870926715,14.319883800205835 A 214.78534892206943 214.78534892206943 0 0 1 123.49329924317527,19.833895811569505"/><text text-anchor="middle" pointer-events="none" font-size="10px" fill="#000000" x="101.97518979100134" y="24.235136840812743" font-family="sans-serif">TRAINS</text></g><g class="relationship" transform="translate(-143.45195353365543 22.255744744880587) rotate(448.34495432983516)"><path class="outline" fill="#A5ABB6" stroke="none" d="M 50 0.5 L 144.9599389410394 0.5 L 144.9599389410394 -0.5 L 50 -0.5 Z M 187.9599389410394 0.5 L 282.9198778820788 0.5 L 282.9198778820788 3.5 L 289.9198778820788 0 L 282.9198778820788 -3.5 L 282.9198778820788 -0.5 L 187.9599389410394 -0.5 Z"/><text text-anchor="middle" pointer-events="none" font-size="10px" fill="#000000" x="166.4599389410394" y="4" font-family="sans-serif">TRAINS</text></g><g class="relationship" transform="translate(232.33331954198218 255.2396556478895) rotate(222.0994371623766)"><path class="outline" fill="#A5ABB6" stroke="none" d="M 43.05127018922194,25.433012701892217 L 43.55127018922194,24.566987298107776 A 149.09531221965756 149.09531221965756 0 0 0 94.64223944364032,42.68522753770165 L 94.48491265377551,43.672774134673574 A 150.09531221965756 150.09531221965756 0 0 1 43.05127018922194,25.433012701892217 Z M 137.4758867184565,44.28595573868762 L 137.34678901291957,43.29432386020392 A 149.09531221965756 149.09531221965756 0 0 0 188.93371213827186,26.640581602244072 L 187.5084201263769,24.00078185968245 L 195.3307935395648,23.754866864916092 L 190.83410148746515,30.160314592326234 L 189.4088094755702,27.520514849764613 A 150.09531221965756 150.09531221965756 0 0 1 137.4758867184565,44.28595573868762"/><text text-anchor="middle" pointer-events="none" font-size="10px" fill="#000000" x="115.96546069358924" y="49.0267574808573" transform="rotate(180 115.96546069358924 45.0267574808573)" font-family="sans-serif">TRAINS</text></g><g class="relationship" transform="translate(54.75655300465209 94.7899029488712) rotate(364.73583142643116)"><path class="outline" fill="#A5ABB6" stroke="none" d="M 50 0.5 L 133.49758500044345 0.5 L 133.49758500044345 -0.5 L 50 -0.5 Z M 198.20363968794345 0.5 L 281.7012246883869 0.5 L 281.7012246883869 3.5 L 288.7012246883869 0 L 281.7012246883869 -3.5 L 281.7012246883869 -0.5 L 198.20363968794345 -0.5 Z"/><text text-anchor="middle" pointer-events="none" font-size="10px" fill="#000000" x="165.85061234419345" y="4" font-family="sans-serif">FATHER_OF</text></g><g class="relationship" transform="translate(271.08935640299956 -45.12105731622205) rotate(507.10765697743744)"><path class="outline" fill="#e00000" stroke="none" d="M 50 2.5 L 96.31669013416754 2.5 L 96.31669013416754 -2.5 L 50 -2.5 Z M 150.31669013416754 2.5 L 196.6333802683351 2.5 L 196.6333802683351 5.5 L 207.6333802683351 0 L 196.6333802683351 -5.5 L 196.6333802683351 -2.5 L 150.31669013416754 -2.5 Z"/><text text-anchor="middle" pointer-events="none" font-size="12px" fill="#e00000" x="123.31669013416754" y="5" transform="rotate(180 123.31669013416754 0)" font-family="sans-serif">&lt;3 &lt;3 &lt;3</text></g><g class="relationship" transform="translate(54.75655300465209 94.7899029488712) rotate(485.1815433701156)"><path class="outline" fill="#A5ABB6" stroke="none" d="M 50 0.5 L 127.63279710015073 0.5 L 127.63279710015073 -0.5 L 50 -0.5 Z M 192.33885178765073 0.5 L 269.97164888780145 0.5 L 269.97164888780145 3.5 L 276.97164888780145 0 L 269.97164888780145 -3.5 L 269.97164888780145 -0.5 L 192.33885178765073 -0.5 Z"/><text text-anchor="middle" pointer-events="none" font-size="10px" fill="#000000" x="159.98582444390073" y="4" transform="rotate(180 159.98582444390073 0)" font-family="sans-serif">FATHER_OF</text></g><g class="relationship" transform="translate(232.33331954198218 255.2396556478895) rotate(222.0994371623766)"><path class="outline" fill="#A5ABB6" stroke="none" d="M 50 0.5 L 98.66372795779593 0.5 L 98.66372795779593 -0.5 L 50 -0.5 Z M 133.6637279577959 0.5 L 182.32745591559186 0.5 L 182.32745591559186 3.5 L 189.32745591559186 0 L 182.32745591559186 -3.5 L 182.32745591559186 -0.5 L 133.6637279577959 -0.5 Z"/><text text-anchor="middle" pointer-events="none" font-size="10px" fill="#000000" x="116.16372795779593" y="4" transform="rotate(180 116.16372795779593 0)" font-family="sans-serif">KILLS</text></g><g class="relationship" transform="translate(54.75655300465209 94.7899029488712) rotate(402.0994371623766)"><path class="outline" fill="#A5ABB6" stroke="none" d="M 43.05127018922194,25.433012701892217 L 43.55127018922194,24.566987298107776 A 149.09531221965756 149.09531221965756 0 0 0 98.5871386471974,43.25972461421836 L 98.45627076569683,44.251124431442236 A 150.09531221965756 150.09531221965756 0 0 1 43.05127018922194,25.433012701892217 Z M 133.48964939582814,44.75080660356829 L 133.38710973040372,43.756077687222415 A 149.09531221965756 149.09531221965756 0 0 0 188.93371213827186,26.640581602244072 L 187.5084201263769,24.00078185968245 L 195.3307935395648,23.754866864916092 L 190.83410148746515,30.160314592326234 L 189.4088094755702,27.520514849764613 A 150.09531221965756 150.09531221965756 0 0 1 133.48964939582814,44.75080660356829"/><text text-anchor="middle" pointer-events="none" font-size="10px" fill="#000000" x="115.96546069358924" y="49.0267574808573" font-family="sans-serif">KILLS</text></g><g class="relationship" transform="translate(-133.63439465704334 362.03381778237315) rotate(223.42434700937974)"><path class="outline" fill="#A5ABB6" stroke="none" d="M 50 0.5 L 53.223049743350046 0.5 L 53.223049743350046 -0.5 L 50 -0.5 Z M 86.92910443085005 0.5 L 90.15215417420009 0.5 L 90.15215417420009 3.5 L 97.15215417420009 0 L 90.15215417420009 -3.5 L 90.15215417420009 -0.5 L 86.92910443085005 -0.5 Z"/><text text-anchor="middle" pointer-events="none" font-size="10px" fill="#000000" x="70.07607708710005" y="4" transform="rotate(180 70.07607708710005 0)" font-family="sans-serif">FAT…</text></g><g class="relationship" transform="translate(271.08935640299956 -45.12105731622205) rotate(494.828431583166)"><path class="outline" fill="#A5ABB6" stroke="none" d="M 50 0.5 L 249.04372793559878 0.5 L 249.04372793559878 -0.5 L 50 -0.5 Z M 318.0437279355988 0.5 L 517.0874558711976 0.5 L 517.0874558711976 3.5 L 524.0874558711976 0 L 517.0874558711976 -3.5 L 517.0874558711976 -0.5 L 318.0437279355988 -0.5 Z"/><text text-anchor="middle" pointer-events="none" font-size="10px" fill="#000000" x="283.5437279355988" y="4" transform="rotate(180 283.5437279355988 0)" font-family="sans-serif">MOTHER_OF</text></g><g class="relationship" transform="translate(-133.63439465704334 362.03381778237315) rotate(329.88766618639494)"><path class="outline" fill="#A5ABB6" stroke="none" d="M 50 0.5 L 84.93704098764233 0.5 L 84.93704098764233 -0.5 L 50 -0.5 Z M 127.93704098764233 0.5 L 162.87408197528467 0.5 L 162.87408197528467 3.5 L 169.87408197528467 0 L 162.87408197528467 -3.5 L 162.87408197528467 -0.5 L 127.93704098764233 -0.5 Z"/><text text-anchor="middle" pointer-events="none" font-size="10px" fill="#000000" x="106.43704098764233" y="4" font-family="sans-serif">TRAINS</text></g><g class="relationship" transform="translate(210.6542482680163 467.9331632065262) rotate(275.81985067006894)"><path class="outline" fill="#A5ABB6" stroke="none" d="M 50 0.5 L 81.89774353195855 0.5 L 81.89774353195855 -0.5 L 50 -0.5 Z M 124.89774353195855 0.5 L 156.7954870639171 0.5 L 156.7954870639171 3.5 L 163.7954870639171 0 L 156.7954870639171 -3.5 L 156.7954870639171 -0.5 L 124.89774353195855 -0.5 Z"/><text text-anchor="middle" pointer-events="none" font-size="10px" fill="#000000" x="103.39774353195855" y="4" font-family="sans-serif">TRAINS</text></g><g class="relationship" transform="translate(232.33331954198218 255.2396556478895) rotate(194.3868765800164)"><path class="outline" fill="#A5ABB6" stroke="none" d="M 50 0.5 L 142.4050656723479 0.5 L 142.4050656723479 -0.5 L 50 -0.5 Z M 185.4050656723479 0.5 L 277.8101313446958 0.5 L 277.8101313446958 3.5 L 284.8101313446958 0 L 277.8101313446958 -3.5 L 277.8101313446958 -0.5 L 185.4050656723479 -0.5 Z"/><text text-anchor="middle" pointer-events="none" font-size="10px" fill="#000000" x="163.9050656723479" y="4" transform="rotate(180 163.9050656723479 0)" font-family="sans-serif">TRAINS</text></g><g class="relationship" transform="translate(274.7644383844437 374.6487832241023) rotate(209.3953673969113)"><path class="outline" fill="#A5ABB6" stroke="none" d="M 50 0.5 L 89.36781841647833 0.5 L 89.36781841647833 -0.5 L 50 -0.5 Z M 154.07387310397831 0.5 L 193.44169152045666 0.5 L 193.44169152045666 3.5 L 200.44169152045666 0 L 193.44169152045666 -3.5 L 193.44169152045666 -0.5 L 154.07387310397831 -0.5 Z"/><text text-anchor="middle" pointer-events="none" font-size="10px" fill="#000000" x="121.72084576022833" y="4" transform="rotate(180 121.72084576022833 0)" font-family="sans-serif">FATHER_OF</text></g><g class="relationship" transform="translate(392.30143461577063 122.75367421723129) rotate(518.9861212462149)"><path class="outline" fill="#A5ABB6" stroke="none" d="M 50 0.5 L 141.82726367231942 0.5 L 141.82726367231942 -0.5 L 50 -0.5 Z M 210.82726367231942 0.5 L 302.65452734463884 0.5 L 302.65452734463884 3.5 L 309.65452734463884 0 L 302.65452734463884 -3.5 L 302.65452734463884 -0.5 L 210.82726367231942 -0.5 Z"/><text text-anchor="middle" pointer-events="none" font-size="10px" fill="#000000" x="176.32726367231942" y="4" transform="rotate(180 176.32726367231942 0)" font-family="sans-serif">MOTHER_OF</text></g><g class="relationship" transform="translate(142.59262153705868 379.5249346117163) rotate(236.05447113122113)"><path class="outline" fill="#A5ABB6" stroke="none" d="M 50 0.5 L 52.02873617220972 0.5 L 52.02873617220972 -0.5 L 50 -0.5 Z M 95.02873617220972 0.5 L 97.05747234441944 0.5 L 97.05747234441944 3.5 L 104.05747234441944 0 L 97.05747234441944 -3.5 L 97.05747234441944 -0.5 L 95.02873617220972 -0.5 Z"/><text text-anchor="middle" pointer-events="none" font-size="10px" fill="#000000" x="73.52873617220972" y="4" transform="rotate(180 73.52873617220972 0)" font-family="sans-serif">TRAINS</text></g><g class="relationship" transform="translate(271.08935640299956 -45.12105731622205) rotate(414.1692524718879)"><path class="outline" fill="#A5ABB6" stroke="none" d="M 50 0.5 L 65.53054306832352 0.5 L 65.53054306832352 -0.5 L 50 -0.5 Z M 134.53054306832354 0.5 L 150.06108613664705 0.5 L 150.06108613664705 3.5 L 157.06108613664705 0 L 150.06108613664705 -3.5 L 150.06108613664705 -0.5 L 134.53054306832354 -0.5 Z"/><text text-anchor="middle" pointer-events="none" font-size="10px" fill="#000000" x="100.03054306832352" y="4" font-family="sans-serif">MOTHER_OF</text></g><g class="relationship" transform="translate(392.30143461577063 122.75367421723129) rotate(475.0142682694934)"><path class="outline" fill="#e00000" stroke="none" d="M 50 2.5 L 106.48389423298875 2.5 L 106.48389423298875 -2.5 L 50 -2.5 Z M 160.48389423298875 2.5 L 216.9677884659775 2.5 L 216.9677884659775 5.5 L 227.9677884659775 0 L 216.9677884659775 -5.5 L 216.9677884659775 -2.5 L 160.48389423298875 -2.5 Z"/><text text-anchor="middle" pointer-events="none" font-size="12px" fill="#e00000" x="133.48389423298875" y="5" transform="rotate(180 133.48389423298875 0)" font-family="sans-serif">&lt;3 &lt;3 &lt;3</text></g></g><g class="layer nodes"><g class="node" transform="translate(9.096044190216091,378.3531781930849)"><circle class="outline" cx="0" cy="0" r="50" fill="#80ff80" stroke="#60df60" stroke-width="2px"/><text text-anchor="middle" pointer-events="none" y="8" font-size="16px" fill="#202020" font-family="sans-serif"> Yoda</text></g><g class="node" transform="translate(261.69944742386735,134.33725173288215)"><circle class="outline" cx="0" cy="0" r="50" fill="#ff0000" stroke="#60df60" stroke-width="2px"/><text text-anchor="middle" pointer-events="none" y="-14" font-size="14px" fill="#FFFFFF" font-family="sans-serif"> Darth</text><text text-anchor="middle" pointer-events="none" y="0" font-size="14px" fill="#FFFFFF" font-family="sans-serif"> Tyranus</text><text text-anchor="middle" pointer-events="none" y="14" font-size="14px" fill="#FFFFFF" font-family="sans-serif"> (Count</text><text text-anchor="middle" pointer-events="none" y="28" font-size="14px" fill="#FFFFFF" font-family="sans-serif"> Dooku)</text></g><g class="node" transform="translate(60.17753407944192,-27.394507444159792)"><circle class="outline" cx="0" cy="0" r="50" fill="#80ff80" stroke="#60df60" stroke-width="2px"/><text text-anchor="middle" pointer-events="none" y="8" font-size="16px" fill="#202020" font-family="sans-serif"> Qui-Gon Jinn</text></g><g class="node" transform="translate(-143.45195353365543,22.255744744880587)"><circle class="outline" cx="0" cy="0" r="50" fill="#80ff80" stroke="#60df60" stroke-width="2px"/><text text-anchor="middle" pointer-events="none" y="0" font-size="16px" fill="#202020" font-family="sans-serif"> Obi Wan</text><text text-anchor="middle" pointer-events="none" y="16" font-size="16px" fill="#202020" font-family="sans-serif"> Kenobi</text></g><g class="node" transform="translate(54.75655300465209,94.7899029488712)"><circle class="outline" cx="0" cy="0" r="50" fill="#ff0000" stroke="#60df60" stroke-width="2px"/><text text-anchor="middle" pointer-events="none" y="-7" font-size="14px" fill="#FFFFFF" font-family="sans-serif"> Darth Vader</text><text text-anchor="middle" pointer-events="none" y="7" font-size="14px" fill="#FFFFFF" font-family="sans-serif"> (Anakin</text><text text-anchor="middle" pointer-events="none" y="21" font-size="14px" fill="#FFFFFF" font-family="sans-serif"> Skywalker)</text></g><g class="node" transform="translate(-133.63439465704334,362.03381778237315)"><circle class="outline" cx="0" cy="0" r="50" fill="#80ff80" stroke="#60df60" stroke-width="2px"/><text text-anchor="middle" pointer-events="none" y="0" font-size="16px" fill="#202020" font-family="sans-serif"> Luke</text><text text-anchor="middle" pointer-events="none" y="16" font-size="16px" fill="#202020" font-family="sans-serif"> Skywalker</text></g><g class="node" transform="translate(-240.5084493077224,260.88198675282024)"><circle class="outline" cx="0" cy="0" r="50" fill="#68BDF6" stroke="#5CA8DB" stroke-width="2px"/><text text-anchor="middle" pointer-events="none" y="8" font-size="16px" fill="#FFFFFF" font-family="sans-serif"> Rey</text></g><g class="node" transform="translate(210.6542482680163,467.9331632065262)"><circle class="outline" cx="0" cy="0" r="50" fill="#ff0000" stroke="#df0000" stroke-width="2px"/><text text-anchor="middle" pointer-events="none" y="-14" font-size="14px" fill="#FFFFFF" font-family="sans-serif"> Darth</text><text text-anchor="middle" pointer-events="none" y="0" font-size="14px" fill="#FFFFFF" font-family="sans-serif"> Plagueis</text><text text-anchor="middle" pointer-events="none" y="14" font-size="14px" fill="#FFFFFF" font-family="sans-serif"> (Hego</text><text text-anchor="middle" pointer-events="none" y="28" font-size="14px" fill="#FFFFFF" font-family="sans-serif"> Damask)</text></g><g class="node" transform="translate(232.33331954198218,255.2396556478895)"><circle class="outline" cx="0" cy="0" r="50" fill="#ff0000" stroke="#df0000" stroke-width="2px"/><text text-anchor="middle" pointer-events="none" y="-7" font-size="14px" fill="#FFFFFF" font-family="sans-serif"> Darth Sidious</text><text text-anchor="middle" pointer-events="none" y="7" font-size="14px" fill="#FFFFFF" font-family="sans-serif"> (Sheev</text><text text-anchor="middle" pointer-events="none" y="21" font-size="14px" fill="#FFFFFF" font-family="sans-serif"> Palpatine)</text></g><g class="node" transform="translate(-91.97719868276289,172.05004199420245)"><circle class="outline" cx="0" cy="0" r="50" fill="#ff0000" stroke="#df0000" stroke-width="2px"/><text text-anchor="middle" pointer-events="none" y="7" font-size="14px" fill="#FFFFFF" font-family="sans-serif"> Darth Maul ()</text></g><g class="node" transform="translate(56.56623812854478,251.7236586290293)"><circle class="outline" cx="0" cy="0" r="50" fill="#ff0000" stroke="#df0000" stroke-width="2px"/><text text-anchor="middle" pointer-events="none" y="0" font-size="14px" fill="#FFFFFF" font-family="sans-serif"> Kylo Ren (Ben</text><text text-anchor="middle" pointer-events="none" y="14" font-size="14px" fill="#FFFFFF" font-family="sans-serif"> Solo)</text></g><g class="node" transform="translate(142.59262153705868,379.5249346117163)"><circle class="outline" cx="0" cy="0" r="50" fill="#ff0000" stroke="#df0000" stroke-width="2px"/><text text-anchor="middle" pointer-events="none" y="-7" font-size="14px" fill="#FFFFFF" font-family="sans-serif"> Grand-</text><text text-anchor="middle" pointer-events="none" y="7" font-size="14px" fill="#FFFFFF" font-family="sans-serif"> Master Snoke</text><text text-anchor="middle" pointer-events="none" y="21" font-size="14px" fill="#FFFFFF" font-family="sans-serif"> ()</text></g><g class="node" transform="translate(271.08935640299956,-45.12105731622205)"><circle class="outline" cx="0" cy="0" r="50" fill="#68BDF6" stroke="#5CA8DB" stroke-width="2px"/><text text-anchor="middle" pointer-events="none" y="0" font-size="16px" fill="#FFFFFF" font-family="sans-serif"> Padme</text><text text-anchor="middle" pointer-events="none" y="16" font-size="16px" fill="#FFFFFF" font-family="sans-serif"> Naberrie</text></g><g class="node" transform="translate(392.30143461577063,122.75367421723129)"><circle class="outline" cx="0" cy="0" r="50" fill="#68BDF6" stroke="#5CA8DB" stroke-width="2px"/><text text-anchor="middle" pointer-events="none" y="8" font-size="16px" fill="#FFFFFF" font-family="sans-serif"> Leia Organa</text></g><g class="node" transform="translate(274.7644383844437,374.6487832241023)"><circle class="outline" cx="0" cy="0" r="50" fill="#68BDF6" stroke="#5CA8DB" stroke-width="2px"/><text text-anchor="middle" pointer-events="none" y="8" font-size="16px" fill="#FFFFFF" font-family="sans-serif"> Han Solo</text></g></g></svg>